<?xml version="1.0" encoding="UTF-8"?>
<svg id="Layer_1" xmlns="http://www.w3.org/2000/svg" version="1.1" viewBox="0 0 512 512">
  <!-- Generator: Adobe Illustrator 30.5.1, SVG Export Plug-In . SVG Version: 2.1.4 Build 3)  -->
  <defs>
    <style>
      .st0 {
        fill: #494fa2;
      }
    </style>
  </defs>
  <path class="st0" d="M256,512c141.4,0,256-114.6,256-256S397.4,0,256,0,0,114.6,0,256s114.6,256,256,256ZM167,167c9.4-9.4,24.6-9.4,33.9,0l55,55,55-55c9.4-9.4,24.6-9.4,33.9,0,9.3,9.4,9.4,24.6,0,33.9l-55,55,55,55c9.4,9.4,9.4,24.6,0,33.9-9.4,9.3-24.6,9.4-33.9,0l-55-55-55,55c-9.4,9.4-24.6,9.4-33.9,0-9.3-9.4-9.4-24.6,0-33.9l55-55-55-55c-9.4-9.4-9.4-24.6,0-33.9Z"/>
</svg>